# xmcd
#
# Track frame offsets:
# 150
# 16342
# 33083
# 50558
# 74760
# 96605
# 119179
# 138504
# 156761
# 169302
# 190756
# 209135
# 230009
# 246670
# 263692
#
# Disc length: 3816 seconds
#
#
# Revision: 0
# Processed by: cddbd v1.5.2PL0 Copyright (c) Steve Scherf et al.
# Submitted via: FreeRIP 2.951 
#
DISCID=ef0ee60f
DTITLE=Tamarisque - Old Carousel
DYEAR=1900
DGENRE=Bluegrass
TTITLE0=Old Carousel
TTITLE1=Moon River
TTITLE2=Serenade
TTITLE3=Circle Game
TTITLE4=Quand Je Suis, Pres De Tois and Valse Frontenac
TTITLE5=May it Be
TTITLE6=Kalinka
TTITLE7=Mull of Kintyre
TTITLE8=Funiculi Funicula
TTITLE9=Marble Halls
TTITLE10=Stenka Rasin
TTITLE11=Caledonia
TTITLE12=Tzigane
TTITLE13=Ghost in this House
TTITLE14=Working Man
EXTD=
EXTT0=
EXTT1=
EXTT2=
EXTT3=
EXTT4=
EXTT5=
EXTT6=
EXTT7=
EXTT8=
EXTT9=
EXTT10=
EXTT11=
EXTT12=
EXTT13=
EXTT14=
PLAYORDER=
